<svg width="25" height="25" viewBox="0 0 25 25" fill="none" xmlns="http://www.w3.org/2000/svg">
<g clip-path="url(#clip0)">
<path d="M5.54053 15.1079L4.67031 18.3565L1.4897 18.4238C0.53916 16.6608 0 14.6437 0 12.5001C0 10.4273 0.504102 8.47261 1.39766 6.75146H1.39834L4.22998 7.2706L5.47041 10.0853C5.21079 10.8421 5.06929 11.6546 5.06929 12.5001C5.06938 13.4177 5.2356 14.2968 5.54053 15.1079Z" fill="#FBBB00"/>
<path d="M24.7817 10.165C24.9252 10.9212 25.0001 11.7021 25.0001 12.5002C25.0001 13.3951 24.906 14.2681 24.7268 15.1101C24.1183 17.9755 22.5283 20.4775 20.3257 22.2481L20.325 22.2475L16.7584 22.0655L16.2536 18.9144C17.7151 18.0572 18.8573 16.7159 19.459 15.1101H12.7749V10.165H19.5565H24.7817Z" fill="#518EF8"/>
<path d="M20.3249 22.2473L20.3256 22.248C18.1834 23.9698 15.4623 25 12.5 25C7.73975 25 3.60103 22.3394 1.48975 18.4238L5.54058 15.1079C6.59619 17.9252 9.31392 19.9307 12.5 19.9307C13.8695 19.9307 15.1525 19.5605 16.2535 18.9142L20.3249 22.2473Z" fill="#28B446"/>
<path d="M20.4785 2.87773L16.4291 6.19297C15.2896 5.48076 13.9428 5.06934 12.4998 5.06934C9.24155 5.06934 6.473 7.16685 5.47026 10.0852L1.39814 6.75137H1.39746C3.47783 2.74038 7.66875 0 12.4998 0C15.5328 0 18.3137 1.08037 20.4785 2.87773Z" fill="#F14336"/>
</g>
<defs>
<clipPath id="clip0">
<rect width="25" height="25" fill="white"/>
</clipPath>
</defs>
</svg>
