<svg width="25" height="25" viewBox="0 0 25 25" fill="none" xmlns="http://www.w3.org/2000/svg">
  <path d="M23.1406 6.29297H20.0977C19.7266 4.58594 18.2422 3.32422 16.4609 3.32422C14.6797 3.32422 13.1953 4.58594 12.8242 6.29297H2.35938V7.77734H12.8242C13.1953 9.48438 14.6797 10.7461 16.4609 10.7461C18.2422 10.7461 19.7266 9.48438 20.0977 7.77734H23.1406V6.29297ZM16.4609 9.26172C15.1992 9.26172 14.2344 8.29688 14.2344 7.03516C14.2344 5.77344 15.1992 4.80859 16.4609 4.80859C17.7227 4.80859 18.6875 5.77344 18.6875 7.03516C18.6875 8.29688 17.7227 9.26172 16.4609 9.26172Z" fill="black"/>
  <path d="M2.35938 18.168H5.40234C5.77344 19.875 7.25781 21.1367 9.03906 21.1367C10.8203 21.1367 12.3047 19.875 12.6758 18.168H23.1406V16.6836H12.6758C12.3047 14.9766 10.8203 13.7148 9.03906 13.7148C7.25781 13.7148 5.77344 14.9766 5.40234 16.6836H2.35938V18.168ZM9.03906 15.1992C10.3008 15.1992 11.2656 16.1641 11.2656 17.4258C11.2656 18.6875 10.3008 19.6523 9.03906 19.6523C7.77734 19.6523 6.8125 18.6875 6.8125 17.4258C6.8125 16.1641 7.77734 15.1992 9.03906 15.1992Z" fill="black"/>
</svg>
