<svg width="69" height="69" viewBox="0 0 69 69" fill="none" xmlns="http://www.w3.org/2000/svg">
<path d="M62.4668 15.228C73.0609 30.6466 69.1467 51.7277 53.7249 62.3251C38.3063 72.9192 17.2252 69.0039 6.62776 53.5832C-3.96527 38.1646 -0.0499817 17.0725 15.3697 6.48607C30.7882 -4.10477 51.8803 -0.189478 62.4668 15.228Z" fill="#DB7C27"/>
<path d="M49.1063 64.9886C49.1063 64.9886 32.9338 28.9501 50.163 4.33936L51.6065 5.13706C51.6065 5.13706 33.5577 29.8614 52.5343 63.1375L49.1063 64.9843" fill="#404041"/>
<path d="M6.62326 53.5825C6.62326 53.5825 22.5631 29.9138 18.1659 4.75342L16.2055 6.10186C16.2055 6.10186 24.8108 13.1249 5.39502 51.7937" fill="#404041"/>
<path d="M37.3443 0.686151C37.3443 0.686151 17.6367 25.3668 21.6853 65.8135C21.6853 65.8135 24.6139 66.6822 25.5591 67.0177C26.5021 67.351 19.2715 30.3781 40.3155 1.02709L37.3432 0.685059" fill="#404041"/>
<path d="M1.41588 28.9163C1.41588 28.9163 27.033 47.3945 67.236 41.3724C67.236 41.3724 67.9594 38.4046 68.2468 37.4451C68.5353 36.4846 31.9602 45.5183 1.60929 25.9331L1.4126 28.9163" fill="#404041"/>
</svg>
