<svg width="171" height="116" viewBox="0 0 171 116" fill="none" xmlns="http://www.w3.org/2000/svg">
<path d="M85.0469 100.878C85.0469 96.2376 88.7302 92.5137 93.3198 92.5137C97.9095 92.5137 101.591 96.2376 101.591 100.878C101.591 105.518 97.9095 109.242 93.3198 109.242C88.7302 109.242 85.0469 105.518 85.0469 100.878ZM118.703 100.878C118.703 96.2376 122.386 92.5137 126.976 92.5137C131.564 92.5137 135.247 96.2376 135.247 100.878C135.247 105.518 131.564 109.242 126.976 109.242C122.386 109.242 118.703 105.518 118.703 100.878ZM40.6826 100.878C40.6826 96.2376 44.3642 92.5137 48.9556 92.5137C53.5435 92.5137 57.2269 96.2376 57.2269 100.878C57.2269 105.518 53.5435 109.242 48.9556 109.242C44.3642 109.242 40.6826 105.518 40.6826 100.878ZM7.02639 100.878C7.02639 96.2376 10.708 92.5137 15.2977 92.5137C19.889 92.5137 23.5706 96.2376 23.5706 100.878C23.5706 105.518 19.889 109.242 15.2977 109.242C10.708 109.242 7.02639 105.518 7.02639 100.878ZM75.0741 86.098H67.8784V115.371H75.0741V86.098ZM23.5142 115.371H30.7099V86.098H23.5142V88.4475C21.0775 86.729 18.1311 85.7557 14.9591 85.7557C6.6861 85.7557 0 92.5137 0 100.878C0 109.299 6.6861 116 14.9591 116C18.1311 116 21.0775 115.027 23.5142 113.308V115.371ZM135.191 115.371H142.387V86.098H135.191V88.4475C132.754 86.729 129.808 85.7557 126.636 85.7557C118.363 85.7557 111.678 92.5137 111.678 100.878C111.678 109.299 118.363 116 126.636 116C129.808 116 132.754 115.027 135.191 113.308V115.371ZM145.051 105.86C145.276 111.761 150.263 115.943 158.592 115.943C165.391 115.943 171 112.964 171 106.377C171 101.794 168.45 99.1023 162.558 97.9561L157.968 97.0398C155.022 96.4676 152.982 95.8936 152.982 94.1181C152.982 92.1714 154.965 91.3122 157.459 91.3122C161.085 91.3122 162.558 93.1447 162.671 95.3213H169.924C169.528 89.592 164.994 85.7557 157.686 85.7557C150.15 85.7557 145.673 89.936 145.673 95.3784C145.673 102.024 151 103.111 155.589 103.971L159.386 104.659C162.105 105.174 163.295 105.976 163.295 107.581C163.295 109.012 161.935 110.444 158.705 110.444C154.003 110.444 152.472 107.982 152.416 105.86H145.051ZM57.1704 76.1312V88.4475C54.7337 86.729 51.7874 85.7557 48.6153 85.7557C40.3423 85.7557 33.6562 92.5137 33.6562 100.878C33.6562 109.299 40.3423 116 48.6153 116C51.7874 116 54.7337 115.027 57.1704 113.308V115.371H64.3661V76.1312H57.1704ZM101.535 76.1312V88.4475C99.0979 86.729 96.1516 85.7557 92.9795 85.7557C84.7066 85.7557 78.0222 92.5137 78.0222 100.878C78.0222 109.299 84.7066 116 92.9795 116C96.1516 116 99.0979 115.027 101.535 113.308V115.371H108.73V76.1312H101.535ZM18.6971 67.4818L23.5706 76.1312H57.1704L43.8547 52.8731L18.6971 67.4818ZM75.0741 83.4062V76.1312H101.535L73.318 26.7521L48.104 41.359L67.8784 76.1312V83.4062H75.0741ZM112.244 76.1312H145.901L102.385 0L77.2287 14.664L112.244 76.1312Z" fill="white"/>
</svg>
