<svg width="319" height="377" viewBox="0 0 319 377" fill="none" xmlns="http://www.w3.org/2000/svg">
<path opacity="0.8" d="M178.623 419.309C255.716 342.216 255.716 217.225 178.624 140.132C101.531 63.0393 -23.461 63.0393 -100.554 140.132C-177.646 217.225 -177.646 342.216 -100.554 419.309C-23.4609 496.402 101.531 496.402 178.623 419.309Z" stroke="#498D66" stroke-width="0.5" stroke-miterlimit="10"/>
<path opacity="0.8" d="M171.592 412.278C244.802 339.069 244.802 220.372 171.592 147.163C98.3829 73.9534 -20.3132 73.9533 -93.5227 147.163C-166.732 220.372 -166.732 339.069 -93.5227 412.278C-20.3132 485.488 98.3829 485.488 171.592 412.278Z" stroke="#498D66" stroke-width="0.6562" stroke-miterlimit="10"/>
<path opacity="0.8" d="M39.0368 457.227C137.072 457.227 216.546 377.754 216.546 279.718C216.546 181.682 137.072 102.209 39.0368 102.209C-58.9988 102.209 -138.472 181.682 -138.472 279.718C-138.472 377.754 -58.9988 457.227 39.0368 457.227Z" stroke="#498D66" stroke-width="0.8125" stroke-miterlimit="10"/>
<path opacity="0.8" d="M39.0369 447.284C131.581 447.284 206.603 372.262 206.603 279.718C206.603 187.174 131.581 112.152 39.0369 112.152C-53.5072 112.152 -128.529 187.174 -128.529 279.718C-128.529 372.262 -53.5072 447.284 39.0369 447.284Z" stroke="#498D66" stroke-width="0.9688" stroke-miterlimit="10"/>
<path opacity="0.8" d="M150.49 391.175C212.045 329.621 212.045 229.82 150.49 168.266C88.9349 106.711 -10.8652 106.711 -72.4201 168.266C-133.975 229.82 -133.975 329.621 -72.4201 391.175C-10.8652 452.73 88.9349 452.73 150.49 391.175Z" stroke="#498D66" stroke-width="1.125" stroke-miterlimit="10"/>
<path opacity="0.8" d="M143.459 384.145C201.131 326.473 201.131 232.968 143.459 175.296C85.7873 117.625 -7.7172 117.625 -65.389 175.296C-123.061 232.968 -123.061 326.473 -65.389 384.144C-7.71716 441.816 85.7873 441.816 143.459 384.145Z" stroke="#498D66" stroke-width="1.2812" stroke-miterlimit="10"/>
<path opacity="0.8" d="M129.397 370.083C179.303 320.177 179.303 239.264 129.397 189.358C79.4914 139.453 -1.42161 139.453 -51.3273 189.358C-101.233 239.264 -101.233 320.177 -51.3273 370.083C-1.42161 419.988 79.4914 419.988 129.397 370.083Z" stroke="#498D66" stroke-width="1.5938" stroke-miterlimit="10"/>
<path opacity="0.8" d="M155.404 298.521C165.772 234.267 122.089 173.775 57.8362 163.406C-6.41712 153.038 -66.9099 196.721 -77.2781 260.974C-87.6464 325.227 -43.9639 385.72 20.2894 396.088C84.5426 406.456 145.035 362.774 155.404 298.521Z" stroke="#498D66" stroke-width="1.75" stroke-miterlimit="10"/>
<path opacity="0.8" d="M39.0369 387.624C98.6317 387.624 146.943 339.313 146.943 279.718C146.943 220.123 98.6317 171.812 39.0369 171.812C-20.558 171.812 -68.8691 220.123 -68.8691 279.718C-68.8691 339.313 -20.558 387.624 39.0369 387.624Z" stroke="#498D66" stroke-width="1.9062" stroke-miterlimit="10"/>
<path opacity="0.8" d="M108.304 348.99C146.561 310.733 146.561 248.707 108.304 210.451C70.0479 172.195 8.02193 172.195 -30.2345 210.451C-68.4909 248.708 -68.4909 310.733 -30.2345 348.99C8.02195 387.246 70.0479 387.246 108.304 348.99Z" stroke="#498D66" stroke-width="2.0625" stroke-miterlimit="10"/>
<path opacity="0.8" d="M101.263 341.949C135.631 307.581 135.631 251.86 101.263 217.492C66.8955 183.124 11.1741 183.124 -23.1938 217.492C-57.5617 251.86 -57.5617 307.581 -23.1938 341.949C11.1741 376.317 66.8955 376.317 101.263 341.949Z" stroke="#498D66" stroke-width="2.2188" stroke-miterlimit="10"/>
<path opacity="0.8" d="M94.2327 334.918C124.717 304.433 124.717 255.008 94.2327 224.523C63.7478 194.038 14.3221 194.038 -16.1627 224.523C-46.6475 255.008 -46.6475 304.433 -16.1627 334.918C14.3222 365.403 63.7478 365.403 94.2327 334.918Z" stroke="#498D66" stroke-width="2.375" stroke-miterlimit="10"/>
<path opacity="0.8" d="M87.2014 327.887C113.803 301.285 113.803 258.155 87.2014 231.554C60.5997 204.952 17.4697 204.952 -9.13208 231.554C-35.7339 258.155 -35.7338 301.285 -9.13207 327.887C17.4697 354.489 60.5997 354.489 87.2014 327.887Z" stroke="#498D66" stroke-width="2.5312" stroke-miterlimit="10"/>
<path opacity="0.8" d="M96.7927 286.529C100.558 254.621 77.7446 225.702 45.8368 221.937C13.9291 218.171 -14.9898 240.985 -18.7553 272.893C-22.5209 304.8 0.29283 333.719 32.2005 337.485C64.1082 341.25 93.0271 318.437 96.7927 286.529Z" stroke="#498D66" stroke-width="2.6875" stroke-miterlimit="10"/>
<path opacity="0.8" d="M39.0369 327.95C65.6748 327.95 87.269 306.356 87.269 279.718C87.269 253.08 65.6748 231.486 39.0369 231.486C12.3991 231.486 -9.19519 253.08 -9.19519 279.718C-9.19519 306.356 12.3991 327.95 39.0369 327.95Z" stroke="#498D66" stroke-width="2.8438" stroke-miterlimit="10"/>
<path opacity="0.8" d="M77.2331 282.796C78.9121 261.717 63.1856 243.269 42.107 241.59C21.0284 239.911 2.57962 255.637 0.900602 276.716C-0.778415 297.794 14.9481 316.243 36.0267 317.922C57.1054 319.601 75.5541 303.875 77.2331 282.796Z" stroke="#498D66" stroke-width="3" stroke-miterlimit="10"/>
</svg>
