<svg width="103" height="122" viewBox="0 0 103 122" fill="none" xmlns="http://www.w3.org/2000/svg">
<g clip-path="url(#clip0)">
<path d="M29.2615 117.864L31.3677 104.434L26.676 104.325H4.27295L19.8419 5.22312C19.8903 4.92395 20.0473 4.645 20.2769 4.4469C20.5064 4.2488 20.8004 4.13965 21.1065 4.13965H58.8812C71.4218 4.13965 80.0761 6.75939 84.5946 11.9302C86.7129 14.3558 88.062 16.8907 88.7144 19.6802C89.399 22.6072 89.4111 26.1043 88.7426 30.3694L88.6943 30.6807V33.4137L90.8125 34.6184C92.5966 35.5685 94.0141 36.656 95.1015 37.9012C96.9137 39.9751 98.0856 42.6111 98.5809 45.7362C99.0924 48.9502 98.9232 52.7747 98.0856 57.1045C97.1191 62.0853 95.5565 66.4232 93.4463 69.9728C91.5052 73.2435 89.0325 75.9562 86.0967 78.0585C83.2938 80.0556 79.9634 81.5717 76.198 82.5419C72.5494 83.496 68.3893 83.9771 63.8266 83.9771H60.8867C58.7846 83.9771 56.7428 84.7372 55.14 86.0996C53.5331 87.4903 52.47 89.3905 52.1438 91.4685L51.9223 92.6773L48.2012 116.348L48.032 117.217C47.9877 117.492 47.9112 117.63 47.7985 117.722C47.6978 117.807 47.5528 117.864 47.4119 117.864H29.2615Z" fill="#253B80"/>
<path d="M92.8175 30.9961C92.7048 31.7198 92.5759 32.4596 92.4309 33.2196C87.4493 58.8955 70.4064 67.7655 48.6396 67.7655H37.5569C34.8949 67.7655 32.6518 69.706 32.237 72.3419L26.5628 108.469L24.9559 118.709C24.6861 120.439 26.0151 122 27.7548 122H47.4114C49.739 122 51.7164 120.302 52.0829 117.997L52.2762 116.995L55.9771 93.4171L56.2147 92.1234C56.5772 89.8109 58.5585 88.113 60.8862 88.113H63.826C82.8705 88.113 97.779 80.3508 102.136 57.8889C103.957 48.5055 103.014 40.6705 98.1978 35.1602C96.74 33.4986 94.9318 32.12 92.8175 30.9961Z" fill="#179BD7"/>
<path d="M87.6063 28.9102C86.8452 28.6879 86.0599 28.4857 85.2545 28.3038C84.445 28.1259 83.6154 27.9683 82.7617 27.8308C79.7735 27.3457 76.4994 27.1152 72.9918 27.1152H43.3841C42.6552 27.1152 41.9625 27.281 41.3423 27.5802C39.9771 28.2391 38.9623 29.5369 38.7166 31.1257L32.4182 71.1738L32.2369 72.3422C32.6517 69.7063 34.8949 67.7657 37.5568 67.7657H48.6396C70.4063 67.7657 87.4493 58.8918 92.4309 33.2199C92.5799 32.4598 92.7047 31.72 92.8175 30.9963C91.557 30.3252 90.1918 29.7511 88.7219 29.262C88.3594 29.1407 87.9849 29.0234 87.6063 28.9102Z" fill="#222D65"/>
<path d="M38.717 31.1256C38.9627 29.5368 39.9775 28.2391 41.3428 27.5841C41.967 27.285 42.6556 27.1192 43.3845 27.1192H72.9922C76.4998 27.1192 79.7739 27.3496 82.7621 27.8348C83.6158 27.9722 84.4454 28.1299 85.2549 28.3078C86.0603 28.4897 86.8456 28.6918 87.6067 28.9142C87.9853 29.0274 88.3598 29.1446 88.7263 29.2619C90.1962 29.7511 91.5614 30.3292 92.8219 30.9963C94.3039 21.5078 92.8098 15.0474 87.6994 9.1974C82.0654 2.7572 71.8968 0 58.8851 0H21.1103C18.4524 0 16.1851 1.94055 15.7743 4.58051L0.0402266 104.701C-0.269865 106.682 1.2524 108.469 3.24182 108.469H26.5631L32.4186 71.1737L38.717 31.1256Z" fill="#253B80"/>
</g>
<defs>
<clipPath id="clip0">
<rect width="103" height="122" fill="white"/>
</clipPath>
</defs>
</svg>
