<svg width="147" height="147" viewBox="0 0 147 147" fill="none" xmlns="http://www.w3.org/2000/svg">
<path opacity="0.8" d="M109.784 109.509C129.798 89.495 129.798 57.0452 109.784 37.0307C89.7694 17.0163 57.3196 17.0163 37.3051 37.0307C17.2907 57.0452 17.2907 89.495 37.3051 109.509C57.3196 129.524 89.7694 129.524 109.784 109.509Z" stroke="#498D66" stroke-width="0.5" stroke-miterlimit="10"/>
<path opacity="0.8" d="M107.958 107.684C126.965 88.6778 126.965 57.8624 107.958 38.8561C88.9521 19.8497 58.1368 19.8497 39.1304 38.8561C20.1241 57.8624 20.1241 88.6778 39.1304 107.684C58.1368 126.69 88.9521 126.69 107.958 107.684Z" stroke="#498D66" stroke-width="0.6562" stroke-miterlimit="10"/>
<path opacity="0.8" d="M73.545 119.354C98.9966 119.354 119.629 98.7212 119.629 73.2696C119.629 47.8181 98.9966 27.1855 73.545 27.1855C48.0934 27.1855 27.4608 47.8181 27.4608 73.2696C27.4608 98.7212 48.0934 119.354 73.545 119.354Z" stroke="#498D66" stroke-width="0.8125" stroke-miterlimit="10"/>
<path opacity="0.8" d="M73.5449 116.772C97.5708 116.772 117.048 97.2953 117.048 73.2694C117.048 49.2436 97.5708 29.7667 73.5449 29.7667C49.5191 29.7667 30.0422 49.2436 30.0422 73.2694C30.0422 97.2953 49.5191 116.772 73.5449 116.772Z" stroke="#498D66" stroke-width="0.9688" stroke-miterlimit="10"/>
<path opacity="0.8" d="M102.48 102.206C118.46 86.2249 118.46 60.3152 102.48 44.3347C86.4993 28.3541 60.5896 28.3541 44.609 44.3346C28.6284 60.3152 28.6284 86.2249 44.609 102.206C60.5896 118.186 86.4993 118.186 102.48 102.206Z" stroke="#498D66" stroke-width="1.125" stroke-miterlimit="10"/>
<path opacity="0.8" d="M100.655 100.38C115.627 85.4077 115.627 61.1325 100.655 46.16C85.6821 31.1875 61.4069 31.1875 46.4344 46.16C31.4619 61.1325 31.4619 85.4077 46.4344 100.38C61.4069 115.353 85.6821 115.353 100.655 100.38Z" stroke="#498D66" stroke-width="1.2812" stroke-miterlimit="10"/>
<path opacity="0.8" d="M97.0039 96.7295C109.96 83.7732 109.96 62.7669 97.0039 49.8107C84.0476 36.8544 63.0413 36.8544 50.085 49.8107C37.1288 62.7669 37.1288 83.7732 50.085 96.7295C63.0413 109.686 84.0476 109.686 97.0039 96.7295Z" stroke="#498D66" stroke-width="1.5938" stroke-miterlimit="10"/>
<path opacity="0.8" d="M103.756 78.151C106.447 61.4698 95.1068 45.765 78.4256 43.0732C61.7445 40.3814 46.0396 51.7221 43.3479 68.4032C40.6561 85.0844 51.9967 100.789 68.6779 103.481C85.359 106.173 101.064 94.8321 103.756 78.151Z" stroke="#498D66" stroke-width="1.75" stroke-miterlimit="10"/>
<path opacity="0.8" d="M73.545 101.284C89.0167 101.284 101.559 88.7412 101.559 73.2694C101.559 57.7977 89.0167 45.2554 73.545 45.2554C58.0732 45.2554 45.5309 57.7977 45.5309 73.2694C45.5309 88.7412 58.0732 101.284 73.545 101.284Z" stroke="#498D66" stroke-width="1.9062" stroke-miterlimit="10"/>
<path opacity="0.8" d="M91.5279 91.2535C101.46 81.3215 101.46 65.2186 91.5279 55.2867C81.5959 45.3547 65.493 45.3547 55.561 55.2867C45.6291 65.2186 45.6291 81.3215 55.5611 91.2535C65.493 101.185 81.5959 101.185 91.5279 91.2535Z" stroke="#498D66" stroke-width="2.0625" stroke-miterlimit="10"/>
<path opacity="0.8" d="M89.6999 89.4256C98.6224 80.5031 98.6224 66.037 89.6999 57.1146C80.7775 48.1921 66.3113 48.1921 57.3889 57.1146C48.4665 66.037 48.4665 80.5031 57.3889 89.4256C66.3114 98.348 80.7775 98.348 89.6999 89.4256Z" stroke="#498D66" stroke-width="2.2188" stroke-miterlimit="10"/>
<path opacity="0.8" d="M87.8747 87.6003C95.789 79.6859 95.789 66.8543 87.8747 58.9399C79.9603 51.0256 67.1287 51.0256 59.2143 58.9399C51.3 66.8542 51.3 79.6859 59.2143 87.6003C67.1287 95.5146 79.9603 95.5146 87.8747 87.6003Z" stroke="#498D66" stroke-width="2.375" stroke-miterlimit="10"/>
<path opacity="0.8" d="M86.0493 85.7749C92.9555 78.8687 92.9555 67.6715 86.0493 60.7652C79.1431 53.859 67.9459 53.859 61.0396 60.7652C54.1334 67.6715 54.1334 78.8687 61.0396 85.7749C67.9459 92.6812 79.1431 92.6812 86.0493 85.7749Z" stroke="#498D66" stroke-width="2.5312" stroke-miterlimit="10"/>
<path opacity="0.8" d="M88.5393 75.0378C89.5169 66.754 83.5941 59.2462 75.3104 58.2686C67.0266 57.291 59.5188 63.2138 58.5412 71.4976C57.5636 79.7813 63.4864 87.2891 71.7702 88.2667C80.0539 89.2443 87.5617 83.3215 88.5393 75.0378Z" stroke="#498D66" stroke-width="2.6875" stroke-miterlimit="10"/>
<path opacity="0.8" d="M73.545 85.7913C80.4606 85.7913 86.0668 80.1851 86.0668 73.2695C86.0668 66.3539 80.4606 60.7477 73.545 60.7477C66.6294 60.7477 61.0232 66.3539 61.0232 73.2695C61.0232 80.1851 66.6294 85.7913 73.545 85.7913Z" stroke="#498D66" stroke-width="2.8438" stroke-miterlimit="10"/>
<path opacity="0.8" d="M83.4614 74.0687C83.8972 68.5964 79.8144 63.8068 74.3421 63.3709C68.8697 62.935 64.0801 67.0179 63.6442 72.4902C63.2083 77.9625 67.2912 82.7521 72.7635 83.188C78.2359 83.6239 83.0255 79.5411 83.4614 74.0687Z" stroke="#498D66" stroke-width="3" stroke-miterlimit="10"/>
</svg>
