<svg width="119" height="739" viewBox="0 0 119 739" fill="none" xmlns="http://www.w3.org/2000/svg">
<path d="M91.936 9.4291L91.3997 10.2732L91.4069 10.2777L91.936 9.4291ZM104.812 32.8131H105.812V32.8036L105.812 32.7941L104.812 32.8131ZM104.812 34.5891V35.5891H105.812V34.5891H104.812ZM74.1759 34.5891H73.1759V35.5891H74.1759V34.5891ZM70.92 26.5971L71.5926 25.8572V25.8572L70.92 26.5971ZM50.9399 25.5611L50.4637 24.6818L50.4557 24.6861L50.4479 24.6905L50.9399 25.5611ZM52.2719 36.2171L52.6483 35.2906H52.6483L52.2719 36.2171ZM67.516 40.2131L67.7166 39.2334L67.7094 39.232L67.516 40.2131ZM87.6439 45.5411L87.3065 46.4824L87.3171 46.4862L87.3277 46.4898L87.6439 45.5411ZM107.624 71.2931H108.624L108.624 71.2792L107.624 71.2931ZM95.34 98.0811L94.7606 97.266L94.7559 97.2694L95.34 98.0811ZM25.6319 98.8211L25.1132 99.6761L25.1175 99.6786L25.6319 98.8211ZM12.4599 70.5531V69.5531H11.4599V70.5531H12.4599ZM43.3919 70.5531H44.3919V69.5531H43.3919V70.5531ZM47.388 80.9131L46.8332 81.7452L46.8441 81.7524L46.8551 81.7593L47.388 80.9131ZM70.032 82.0971L69.7259 81.145L69.7157 81.1484L70.032 82.0971ZM69.588 71.1451L69.1903 72.0627L69.2085 72.0705L69.227 72.0777L69.588 71.1451ZM54.9359 67.1491L54.7264 68.127L54.7371 68.1291L54.9359 67.1491ZM34.3639 61.6731L34.0222 62.6129L34.0298 62.6157L34.0374 62.6183L34.3639 61.6731ZM20.1559 52.0531L19.4168 52.7266L20.1559 52.0531ZM26.9639 9.4291L27.4842 10.2831L27.487 10.2814L26.9639 9.4291ZM59.8199 2.4371C72.7119 2.4371 83.2161 5.07416 91.3997 10.2732L92.4722 8.58504C83.8825 3.12805 72.976 0.437103 59.8199 0.437103V2.4371ZM91.4069 10.2777C99.4901 15.3178 103.621 22.7908 103.812 32.8321L105.812 32.7941C105.608 22.1154 101.155 13.9991 92.4651 8.58055L91.4069 10.2777ZM103.812 32.8131V34.5891H105.812V32.8131H103.812ZM104.812 33.5891H74.1759V35.5891H104.812V33.5891ZM75.1759 34.5891V33.9971H73.1759V34.5891H75.1759ZM75.1759 33.9971C75.1759 30.7583 73.9739 28.022 71.5926 25.8572L70.2473 27.337C72.2073 29.1189 73.1759 31.3159 73.1759 33.9971H75.1759ZM71.5926 25.8572C69.1631 23.6485 65.5687 22.6371 61.004 22.6371V24.6371C65.3192 24.6371 68.3355 25.599 70.2473 27.337L71.5926 25.8572ZM61.004 22.6371C56.5874 22.6371 53.0412 23.2856 50.4637 24.6818L51.4162 26.4404C53.5747 25.2712 56.7379 24.6371 61.004 24.6371V22.6371ZM50.4479 24.6905C48.0026 26.0727 46.5359 27.9274 46.5359 30.2971H48.5359C48.5359 28.9175 49.3386 27.6149 51.432 26.4317L50.4479 24.6905ZM46.5359 30.2971C46.5359 31.8429 46.9998 33.2258 47.9391 34.3998C48.866 35.5585 50.2115 36.4594 51.8956 37.1436L52.6483 35.2906C51.175 34.6921 50.1525 33.965 49.5008 33.1504C48.8614 32.3511 48.5359 31.4153 48.5359 30.2971H46.5359ZM51.8956 37.1436C55.1466 38.4643 60.307 39.8109 67.3225 41.1942L67.7094 39.232C60.7142 37.8527 55.7119 36.5352 52.6483 35.2906L51.8956 37.1436ZM67.3153 41.1928C75.4789 42.8648 82.138 44.6296 87.3065 46.4824L87.9814 44.5998C82.6912 42.7033 75.9317 40.9161 67.7166 39.2334L67.3153 41.1928ZM87.3277 46.4898C92.4976 48.2131 96.9957 51.0828 100.832 55.1108L102.28 53.7315C98.2229 49.4714 93.4463 46.4211 87.9602 44.5924L87.3277 46.4898ZM100.832 55.1108C104.565 59.0309 106.528 64.3913 106.624 71.307L108.624 71.2792C108.523 63.9869 106.44 58.0993 102.28 53.7315L100.832 55.1108ZM106.624 71.2931C106.624 83.0795 102.632 91.6709 94.7606 97.2661L95.9193 98.8962C104.427 92.8487 108.624 83.5814 108.624 71.2931H106.624ZM94.7559 97.2694C86.8876 102.931 76.2615 105.813 62.7799 105.813V107.813C76.5304 107.813 87.6109 104.874 95.924 98.8928L94.7559 97.2694ZM62.7799 105.813C46.9868 105.813 34.8092 103.161 26.1464 97.9636L25.1175 99.6786C34.2147 105.137 46.8025 107.813 62.7799 107.813V105.813ZM26.1507 97.9662C17.7615 92.8761 13.4599 83.8461 13.4599 70.5531H11.4599C11.4599 84.2948 15.9397 94.1101 25.1132 99.676L26.1507 97.9662ZM12.4599 71.5531H43.3919V69.5531H12.4599V71.5531ZM42.3919 70.5531C42.3919 75.8107 43.7542 79.6924 46.8332 81.7452L47.9426 80.0811C45.6937 78.5818 44.3919 75.5568 44.3919 70.5531H42.3919ZM46.8551 81.7593C49.7606 83.5887 54.1359 84.4291 59.8199 84.4291V82.4291C54.256 82.4291 50.3433 81.5922 47.9208 80.0669L46.8551 81.7593ZM59.8199 84.4291C64.0253 84.4291 67.5461 83.9798 70.3482 83.0458L69.7157 81.1484C67.1898 81.9904 63.9026 82.4291 59.8199 82.4291V84.4291ZM70.338 83.0491C71.8625 82.5591 73.093 81.7813 73.9374 80.6656C74.7849 79.5455 75.1759 78.174 75.1759 76.6211H73.1759C73.1759 77.8309 72.8763 78.7533 72.3425 79.4587C71.8055 80.1683 70.9641 80.7471 69.7259 81.1451L70.338 83.0491ZM75.1759 76.6211C75.1759 75.1621 74.7167 73.8595 73.7955 72.7599C72.8891 71.6781 71.5792 70.8436 69.9489 70.2125L69.227 72.0777C70.6553 72.6306 71.6395 73.3008 72.2624 74.0443C72.8705 74.7701 73.1759 75.6135 73.1759 76.6211H75.1759ZM69.9856 70.2276C66.9232 68.9005 61.9515 67.5522 55.1348 66.1691L54.7371 68.1291C61.5364 69.5087 66.3327 70.8244 69.1903 72.0627L69.9856 70.2276ZM55.1455 66.1713C46.8803 64.4002 40.0655 62.5847 34.6905 60.7279L34.0374 62.6183C39.5157 64.5108 46.4156 66.346 54.7264 68.1269L55.1455 66.1713ZM34.7057 60.7333C29.4373 58.8175 24.836 55.705 20.8951 51.3796L19.4168 52.7266C23.5665 57.2812 28.4373 60.582 34.0222 62.6129L34.7057 60.7333ZM20.8951 51.3796C17.0586 47.1688 15.0879 41.4137 15.0879 33.9971H13.0879C13.0879 41.7751 15.1626 48.0574 19.4168 52.7266L20.8951 51.3796ZM15.0879 33.9971C15.0879 23.151 19.2351 15.3084 27.4842 10.2831L26.4437 8.5751C17.5248 14.0085 13.0879 22.5445 13.0879 33.9971H15.0879ZM27.487 10.2814C35.9719 5.07478 46.7293 2.4371 59.8199 2.4371V0.437103C46.4679 0.437103 35.3214 3.12743 26.4409 8.57678L27.487 10.2814ZM70.0562 263.037L69.0781 263.245L69.2463 264.037H70.0562V263.037ZM59.7322 214.433L60.7104 214.225L60.5421 213.433H59.7322V214.433ZM59.2682 214.433V213.433H58.4583L58.2901 214.225L59.2682 214.433ZM48.9442 263.037V264.037H49.7541L49.9224 263.245L48.9442 263.037ZM20.7562 263.037L19.7826 263.265L19.9632 264.037H20.7562V263.037ZM2.08024 183.229V182.229H0.819217L1.10655 183.457L2.08024 183.229ZM28.7602 183.229L29.7403 183.031L29.578 182.229H28.7602V183.229ZM37.9242 228.469L36.9442 228.668L37.1065 229.469H37.9242V228.469ZM38.3882 228.469V229.469H39.208L39.3688 228.665L38.3882 228.469ZM47.4362 183.229V182.229H46.6164L46.4557 183.033L47.4362 183.229ZM72.7242 183.229L73.7023 183.021L73.5338 182.229H72.7242V183.229ZM82.3522 228.469L81.3742 228.677L81.5427 229.469H82.3522V228.469ZM82.8162 228.469V229.469H83.6443L83.7987 228.656L82.8162 228.469ZM91.4002 183.229V182.229H90.5722L90.4178 183.043L91.4002 183.229ZM116.92 183.229L117.894 183.457L118.181 182.229H116.92V183.229ZM98.2442 263.037V264.037H99.0373L99.2179 263.265L98.2442 263.037ZM71.0344 262.829L60.7104 214.225L58.7541 214.641L69.0781 263.245L71.0344 262.829ZM59.7322 213.433H59.2682V215.433H59.7322V213.433ZM58.2901 214.225L47.9661 262.829L49.9224 263.245L60.2464 214.641L58.2901 214.225ZM48.9442 262.037H20.7562V264.037H48.9442V262.037ZM21.7299 262.809L3.05394 183.001L1.10655 183.457L19.7826 263.265L21.7299 262.809ZM2.08024 184.229H28.7602V182.229H2.08024V184.229ZM27.7802 183.428L36.9442 228.668L38.9043 228.271L29.7403 183.031L27.7802 183.428ZM37.9242 229.469H38.3882V227.469H37.9242V229.469ZM39.3688 228.665L48.4168 183.425L46.4557 183.033L37.4077 228.273L39.3688 228.665ZM47.4362 184.229H72.7242V182.229H47.4362V184.229ZM71.7462 183.437L81.3742 228.677L83.3303 228.261L73.7023 183.021L71.7462 183.437ZM82.3522 229.469H82.8162V227.469H82.3522V229.469ZM83.7987 228.656L92.3827 183.416L90.4178 183.043L81.8338 228.283L83.7987 228.656ZM91.4002 184.229H116.92V182.229H91.4002V184.229ZM115.947 183.001L97.2706 262.809L99.2179 263.265L117.894 183.457L115.947 183.001ZM98.2442 262.037H70.0562V264.037H98.2442V262.037ZM46.7013 421.037H45.7013V422.037H46.7013V421.037ZM46.7013 341.229V340.229H45.7013V341.229H46.7013ZM72.3373 341.229H73.3373V340.229H72.3373V341.229ZM72.3373 421.037V422.037H73.3373V421.037H72.3373ZM47.7013 421.037V341.229H45.7013V421.037H47.7013ZM46.7013 342.229H72.3373V340.229H46.7013V342.229ZM71.3373 341.229V421.037H73.3373V341.229H71.3373ZM72.3373 420.037H46.7013V422.037H72.3373V420.037ZM91.936 483.429L91.3997 484.273L91.4069 484.278L91.936 483.429ZM104.812 506.813H105.812V506.804L105.812 506.794L104.812 506.813ZM104.812 508.589V509.589H105.812V508.589H104.812ZM74.1759 508.589H73.1759V509.589H74.1759V508.589ZM70.92 500.597L71.5926 499.857L70.92 500.597ZM50.9399 499.561L50.4637 498.682L50.4557 498.686L50.4479 498.691L50.9399 499.561ZM52.2719 510.217L52.6483 509.291H52.6483L52.2719 510.217ZM67.516 514.213L67.7166 513.233L67.7094 513.232L67.516 514.213ZM87.6439 519.541L87.3065 520.482L87.3171 520.486L87.3277 520.49L87.6439 519.541ZM107.624 545.293H108.624L108.624 545.279L107.624 545.293ZM95.34 572.081L94.7606 571.266L94.7559 571.269L95.34 572.081ZM25.6319 572.821L25.1132 573.676L25.1175 573.679L25.6319 572.821ZM12.4599 544.553V543.553H11.4599V544.553H12.4599ZM43.3919 544.553H44.3919V543.553H43.3919V544.553ZM47.388 554.913L46.8332 555.745L46.8441 555.752L46.8551 555.759L47.388 554.913ZM70.032 556.097L69.7259 555.145L69.7157 555.148L70.032 556.097ZM69.588 545.145L69.1903 546.063L69.2085 546.071L69.227 546.078L69.588 545.145ZM54.9359 541.149L54.7264 542.127L54.7371 542.129L54.9359 541.149ZM34.3639 535.673L34.0222 536.613L34.0298 536.616L34.0374 536.618L34.3639 535.673ZM20.1559 526.053L19.4168 526.727L20.1559 526.053ZM26.9639 483.429L27.4842 484.283L27.487 484.281L26.9639 483.429ZM59.8199 476.437C72.7119 476.437 83.2161 479.074 91.3997 484.273L92.4722 482.585C83.8825 477.128 72.976 474.437 59.8199 474.437V476.437ZM91.4069 484.278C99.4901 489.318 103.621 496.791 103.812 506.832L105.812 506.794C105.608 496.115 101.155 487.999 92.4651 482.581L91.4069 484.278ZM103.812 506.813V508.589H105.812V506.813H103.812ZM104.812 507.589H74.1759V509.589H104.812V507.589ZM75.1759 508.589V507.997H73.1759V508.589H75.1759ZM75.1759 507.997C75.1759 504.758 73.9739 502.022 71.5926 499.857L70.2473 501.337C72.2073 503.119 73.1759 505.316 73.1759 507.997H75.1759ZM71.5926 499.857C69.1631 497.648 65.5687 496.637 61.004 496.637V498.637C65.3192 498.637 68.3355 499.599 70.2473 501.337L71.5926 499.857ZM61.004 496.637C56.5874 496.637 53.0412 497.286 50.4637 498.682L51.4162 500.44C53.5747 499.271 56.7379 498.637 61.004 498.637V496.637ZM50.4479 498.691C48.0026 500.073 46.5359 501.927 46.5359 504.297H48.5359C48.5359 502.917 49.3386 501.615 51.432 500.432L50.4479 498.691ZM46.5359 504.297C46.5359 505.843 46.9998 507.226 47.9391 508.4C48.866 509.559 50.2115 510.459 51.8956 511.144L52.6483 509.291C51.175 508.692 50.1525 507.965 49.5008 507.15C48.8614 506.351 48.5359 505.415 48.5359 504.297H46.5359ZM51.8956 511.144C55.1466 512.464 60.307 513.811 67.3225 515.194L67.7094 513.232C60.7142 511.853 55.7119 510.535 52.6483 509.291L51.8956 511.144ZM67.3153 515.193C75.4789 516.865 82.138 518.63 87.3065 520.482L87.9814 518.6C82.6912 516.703 75.9317 514.916 67.7166 513.233L67.3153 515.193ZM87.3277 520.49C92.4976 522.213 96.9957 525.083 100.832 529.111L102.28 527.731C98.2229 523.471 93.4463 520.421 87.9602 518.592L87.3277 520.49ZM100.832 529.111C104.565 533.031 106.528 538.391 106.624 545.307L108.624 545.279C108.523 537.987 106.44 532.099 102.28 527.731L100.832 529.111ZM106.624 545.293C106.624 557.08 102.632 565.671 94.7606 571.266L95.9193 572.896C104.427 566.849 108.624 557.581 108.624 545.293H106.624ZM94.7559 571.269C86.8876 576.931 76.2615 579.813 62.7799 579.813V581.813C76.5304 581.813 87.6109 578.874 95.924 572.893L94.7559 571.269ZM62.7799 579.813C46.9868 579.813 34.8092 577.161 26.1464 571.964L25.1175 573.679C34.2147 579.137 46.8025 581.813 62.7799 581.813V579.813ZM26.1507 571.966C17.7615 566.876 13.4599 557.846 13.4599 544.553H11.4599C11.4599 558.295 15.9397 568.11 25.1132 573.676L26.1507 571.966ZM12.4599 545.553H43.3919V543.553H12.4599V545.553ZM42.3919 544.553C42.3919 549.811 43.7542 553.692 46.8332 555.745L47.9426 554.081C45.6937 552.582 44.3919 549.557 44.3919 544.553H42.3919ZM46.8551 555.759C49.7606 557.589 54.1359 558.429 59.8199 558.429V556.429C54.256 556.429 50.3433 555.592 47.9208 554.067L46.8551 555.759ZM59.8199 558.429C64.0253 558.429 67.5461 557.98 70.3482 557.046L69.7157 555.148C67.1898 555.99 63.9026 556.429 59.8199 556.429V558.429ZM70.338 557.049C71.8625 556.559 73.093 555.781 73.9374 554.666C74.7849 553.546 75.1759 552.174 75.1759 550.621H73.1759C73.1759 551.831 72.8763 552.753 72.3425 553.459C71.8055 554.168 70.9641 554.747 69.7259 555.145L70.338 557.049ZM75.1759 550.621C75.1759 549.162 74.7167 547.859 73.7955 546.76C72.8891 545.678 71.5792 544.844 69.9489 544.213L69.227 546.078C70.6553 546.631 71.6395 547.301 72.2624 548.044C72.8705 548.77 73.1759 549.613 73.1759 550.621H75.1759ZM69.9856 544.228C66.9232 542.901 61.9515 541.552 55.1348 540.169L54.7371 542.129C61.5364 543.509 66.3327 544.824 69.1903 546.063L69.9856 544.228ZM55.1455 540.171C46.8803 538.4 40.0655 536.585 34.6905 534.728L34.0374 536.618C39.5157 538.511 46.4156 540.346 54.7264 542.127L55.1455 540.171ZM34.7057 534.733C29.4373 532.818 24.836 529.705 20.8951 525.38L19.4168 526.727C23.5665 531.281 28.4373 534.582 34.0222 536.613L34.7057 534.733ZM20.8951 525.38C17.0586 521.169 15.0879 515.414 15.0879 507.997H13.0879C13.0879 515.775 15.1626 522.057 19.4168 526.727L20.8951 525.38ZM15.0879 507.997C15.0879 497.151 19.2351 489.308 27.4842 484.283L26.4437 482.575C17.5248 488.008 13.0879 496.545 13.0879 507.997H15.0879ZM27.487 484.281C35.9719 479.075 46.7293 476.437 59.8199 476.437V474.437C46.4679 474.437 35.3214 477.127 26.4409 482.577L27.487 484.281ZM73.5938 737.037H72.5938V738.037H73.5938V737.037ZM73.5938 706.761H74.5938V705.761H73.5938V706.761ZM45.4058 706.761V705.761H44.4058V706.761H45.4058ZM45.4058 737.037V738.037H46.4058V737.037H45.4058ZM19.7698 737.037H18.7698V738.037H19.7698V737.037ZM19.7698 657.229V656.229H18.7698V657.229H19.7698ZM45.4058 657.229H46.4058V656.229H45.4058V657.229ZM45.4058 686.345H44.4058V687.345H45.4058V686.345ZM73.5938 686.345V687.345H74.5938V686.345H73.5938ZM73.5938 657.229V656.229H72.5938V657.229H73.5938ZM99.2298 657.229H100.23V656.229H99.2298V657.229ZM99.2298 737.037V738.037H100.23V737.037H99.2298ZM74.5938 737.037V706.761H72.5938V737.037H74.5938ZM73.5938 705.761H45.4058V707.761H73.5938V705.761ZM44.4058 706.761V737.037H46.4058V706.761H44.4058ZM45.4058 736.037H19.7698V738.037H45.4058V736.037ZM20.7698 737.037V657.229H18.7698V737.037H20.7698ZM19.7698 658.229H45.4058V656.229H19.7698V658.229ZM44.4058 657.229V686.345H46.4058V657.229H44.4058ZM45.4058 687.345H73.5938V685.345H45.4058V687.345ZM74.5938 686.345V657.229H72.5938V686.345H74.5938ZM73.5938 658.229H99.2298V656.229H73.5938V658.229ZM98.2298 657.229V737.037H100.23V657.229H98.2298ZM99.2298 736.037H73.5938V738.037H99.2298V736.037Z" fill="black"/>
</svg>
