<svg width="154" height="107" viewBox="0 0 154 107" fill="none" xmlns="http://www.w3.org/2000/svg">
<path d="M80.4118 106.86L48.8169 106.279C38.5872 106.077 28.3321 106.481 18.3029 104.386C3.04634 101.255 1.9655 85.9051 0.834526 73.0295C-0.723845 54.928 -0.120553 36.4979 2.82029 18.5475C4.4805 8.47542 11.0141 2.46534 21.118 1.81133C55.2263 -0.562166 89.5614 -0.280881 123.594 0.826442C127.188 0.927953 130.807 1.48278 134.352 2.11432C151.846 5.19452 152.273 22.5893 153.407 37.2325C154.538 52.0268 154.06 66.897 151.899 81.5905C150.164 93.7564 146.846 103.959 132.843 104.944C115.298 106.231 98.1564 107.268 80.5622 106.938C80.563 106.86 80.4619 106.86 80.4118 106.86ZM61.8371 76.0593C75.0585 68.4344 88.0277 60.9365 101.174 53.3627C87.9275 45.7377 74.9829 38.2399 61.8371 30.6661V76.0593Z" fill="#FF0000"/>
</svg>
